<svg width="880" height="168" viewBox="0 0 880 168" xmlns="http://www.w3.org/2000/svg" role="img" aria-label="Kyle Vu — full-stack engineer building local-first, privacy-first software">
  <!-- growth rings -->
  <g fill="none" stroke="#1A7F4B" opacity="0.1" stroke-width="1.5">
    <circle cx="872" cy="84" r="150"/>
    <circle cx="872" cy="84" r="112"/>
    <circle cx="872" cy="84" r="74"/>
  </g>

  <!-- commit graph growing into a branch -->
  <g fill="none" stroke="#1A7F4B" stroke-width="2" stroke-linecap="round">
    <path d="M560 118 H646 C676 118 676 66 706 66 H750" opacity="0.85"/>
    <path d="M646 118 H794" opacity="0.5"/>
    <path d="M712 66 C738 66 738 26 764 26 H802" opacity="0.75"/>
  </g>
  <g stroke="#1A7F4B" stroke-width="2" fill="none">
    <circle cx="560" cy="118" r="4"/>
    <circle cx="646" cy="118" r="4"/>
    <circle cx="712" cy="66" r="3.5"/>
  </g>
  <g fill="#1A7F4B" stroke="none">
    <circle cx="800" cy="118" r="4.5" opacity="0.7"/>
    <circle cx="756" cy="66" r="5"/>
    <ellipse rx="10" ry="4.5" transform="translate(818 22) rotate(-32)" opacity="0.9"/>
    <ellipse rx="8" ry="3.5" transform="translate(812 34) rotate(18)" opacity="0.55"/>
  </g>

  <!-- wordmark -->
  <text x="2" y="34" font-family="ui-monospace, 'Cascadia Code', 'SF Mono', Consolas, 'Liberation Mono', monospace" font-size="12" letter-spacing="3" fill="#1A7F4B">FULL-STACK ENGINEER</text>
  <text x="0" y="88" font-family="-apple-system, 'Segoe UI', 'Helvetica Neue', Arial, sans-serif" font-size="52" font-weight="650" letter-spacing="-1" fill="#1F2328">Kyle Vu</text>
  <text x="2" y="122" font-family="ui-monospace, 'Cascadia Code', 'SF Mono', Consolas, 'Liberation Mono', monospace" font-size="15" fill="#59636E">local-first &amp; privacy-first software</text>
  <text x="2" y="146" font-family="ui-monospace, 'Cascadia Code', 'SF Mono', Consolas, 'Liberation Mono', monospace" font-size="13" fill="#818B98">TypeScript · React · Rust · Python</text>
</svg>
